# xmcd
#
# Track frame offsets:
#	150
#	18429
#	35643
#	55768
#	68119
#	82336
#	98486
#	114058
#	130988
#	152135
#	165628
#	187529
#
# Disc length: 2675 seconds
#
# Revision: 2
# Processed by: cddbd v1.5.2PL0 Copyright (c) Steve Scherf et al.
# Submitted via: audiograbber 1.83.01
#
DISCID=8e0a710c
DTITLE=Shirley Myers - There Will Come A Day
DYEAR=1999
DGENRE=Country
TTITLE0=You Better Be Sure
TTITLE1=I'm Missin' You
TTITLE2=You Left Me
TTITLE3=Do You Love Me
TTITLE4=I Give Up
TTITLE5=I'll Still Be Holding You
TTITLE6=Forever In Love
TTITLE7=Real True Love
TTITLE8=Why Can't It Be You
TTITLE9=Saturday Night
TTITLE10=There Will Come a Day
TTITLE11=The French Song
EXTD=
EXTT0=
EXTT1=
EXTT2=
EXTT3=
EXTT4=
EXTT5=
EXTT6=
EXTT7=
EXTT8=
EXTT9=
EXTT10=
EXTT11=
PLAYORDER=
